<?xml version="1.0" encoding="UTF-8" standalone="no"?>
<svg
   xmlns:osb="http://www.openswatchbook.org/uri/2009/osb"
   xmlns:dc="http://purl.org/dc/elements/1.1/"
   xmlns:cc="http://creativecommons.org/ns#"
   xmlns:rdf="http://www.w3.org/1999/02/22-rdf-syntax-ns#"
   xmlns:svg="http://www.w3.org/2000/svg"
   xmlns="http://www.w3.org/2000/svg"
   xmlns:sodipodi="http://sodipodi.sourceforge.net/DTD/sodipodi-0.dtd"
   xmlns:inkscape="http://www.inkscape.org/namespaces/inkscape"
   sodipodi:docname="glasses.svg"
   inkscape:version="1.0 (4035a4fb49, 2020-05-01)"
   id="svg8"
   version="1.1"
   viewBox="0 0 100.33 78.739998"
   height="3.0999999in"
   width="3.95in">
  <defs
     id="defs2">
    <linearGradient
       osb:paint="solid"
       id="linearGradient2837">
      <stop
         id="stop2835"
         offset="0"
         style="stop-color:#000000;stop-opacity:1;" />
    </linearGradient>
    <linearGradient
       osb:paint="solid"
       id="linearGradient2819">
      <stop
         id="stop2817"
         offset="0"
         style="stop-color:#000000;stop-opacity:1;" />
    </linearGradient>
  </defs>
  <sodipodi:namedview
     inkscape:window-maximized="0"
     inkscape:window-y="0"
     inkscape:window-x="231"
     inkscape:window-height="1032"
     inkscape:window-width="1503"
     showgrid="false"
     inkscape:document-rotation="0"
     inkscape:current-layer="layer1"
     inkscape:document-units="mm"
     inkscape:cy="207.10784"
     inkscape:cx="153.72006"
     inkscape:zoom="2.8284271"
     inkscape:pageshadow="2"
     inkscape:pageopacity="0.0"
     borderopacity="1.0"
     bordercolor="#666666"
     pagecolor="#ffffff"
     id="base"
     units="in"
     width="7.5in" />
  <metadata
     id="metadata5">
    <rdf:RDF>
      <cc:Work
         rdf:about="">
        <dc:format>image/svg+xml</dc:format>
        <dc:type
           rdf:resource="http://purl.org/dc/dcmitype/StillImage" />
        <dc:title />
      </cc:Work>
    </rdf:RDF>
  </metadata>
  <g
     id="layer1"
     inkscape:groupmode="layer"
     inkscape:label="Layer 1">
    <path
       sodipodi:nodetypes="cccsccsssssccscscsccccscsccscscccsccscsccsccssccsscascscscccscc"
       id="path24"
       d="m 17.427432,57.497135 3.357573,1.57021 3.240643,0.0835 c 0,0 0.952148,-2.47224 4.493469,-3.30746 3.541321,-0.83522 8.084902,-0.10023 8.084902,-0.10023 l 1.269532,0.20045 c 0,0 0.534538,0.13364 1.503389,0.43432 0.968854,0.30068 2.438836,1.23612 2.539061,1.20271 0.100226,-0.0334 1.202713,0.83522 1.503391,1.10249 0.300678,0.26727 0.701583,0.66817 0.968851,1.06907 0.267272,0.40091 0.501132,0.70159 0.80181,1.16931 0.300678,0.46772 0.601358,0.13363 0.601358,0.13363 l 0.86862,0.0668 c 0,0 0.56795,0.10023 0.86863,0 0.30068,-0.10022 1.33635,-0.30068 1.33635,-0.30068 0,0 0.43431,-0.16704 0.70158,-0.23386 0.26727,-0.0668 0.93544,0 0.93544,0 0,0 0.0334,-0.10022 0.3675,0.0334 0.33409,0.13364 1.13589,0.30068 1.13589,0.30068 l 1.06908,0.23386 1.33635,0.13363 0.66818,0.30068 c 0,0 0.86862,-2.10474 4.87766,-3.50791 4.00905,-1.40316 9.38785,-0.66817 9.38785,-0.66817 0,0 1.06907,0.0334 3.70836,1.03567 2.63929,1.00226 3.50791,3.57473 3.50791,3.57473 l 1.57021,-0.0668 c 0,0 0.80181,-0.10023 0.90204,0.10023 0.10022,0.20045 0.0668,0.90203 0.0668,0.90203 0,0 0.0334,0.33409 -0.46772,0.23386 -0.50113,-0.10023 -1.57021,0.13363 -1.57021,0.13363 l -0.20045,0.0334 0.13364,2.47225 c 0,0 -0.43432,4.20949 -3.54133,7.082642 -3.107,2.87315 -6.91559,3.40769 -6.91559,3.40769 h -3.20724 c 0,0 -1.97111,-0.16705 -3.4745,-1.03567 -1.50339,-0.86863 -2.5947,-2.00719 -2.5947,-2.00719 0,0 -1.40861,-0.75595 -2.34979,-3.538662 -0.95841,-2.83365 -0.33409,-7.55036 -0.33409,-7.55036 l -0.30067,-0.23386 c 0,0 -1.33635,-0.10023 -1.46999,-0.10023 -0.13363,0 -2.13815,-0.50113 -2.13815,-0.50113 l -0.3675,-0.10022 c 0,0 -0.43431,-0.13364 -0.60135,0 -0.16705,0.13363 -0.26728,0.13363 -0.80181,0.36749 -0.53454,0.23386 -2.93997,0.16705 -2.93997,0.16705 h -0.36749 c 0,0 0.0668,-0.0668 0.16704,0.56794 0.10023,0.63477 0.26727,0.43432 0.13363,1.83748 -0.13363,1.40317 -1.002256,4.44336 -1.002256,4.44336 0,0 -0.791206,1.35123 -1.302938,1.9377 -0.990485,1.13514 -1.102487,1.503392 -3.374279,3.006782 -2.271792,1.5034 -6.447877,1.30294 -6.447877,1.30294 0,0 -2.639288,0 -5.512435,-1.77066 -2.873145,-1.770662 -4.409945,-5.946742 -4.409945,-5.946742 0,0 -0.601359,-1.16931 -0.501132,-3.34087 0.100227,-2.17157 0.167045,-3.10701 0.167045,-3.10701 l -0.03341,-0.26727 -1.770661,0.10022 c 0,0 -0.334086,0.0334 -0.567949,0 -0.23386,-0.0334 -3.57473,-2.03793 -3.57473,-2.03793 z"
       style="fill:none;fill-opacity:1;stroke:#000000;stroke-width:0.264583px;stroke-linecap:butt;stroke-linejoin:round;stroke-opacity:1" />
    <path
       id="path26"
       d="m 17.471948,49.420385 -0.04452,8.07675 c 0,0 -0.238964,2.83732 -1.2784,3.59327 -1.039434,0.75595 -0.661459,-2.69308 -0.661459,-2.69308 l -0.897691,-0.42523 -0.755954,0.56697 c 0,0 0.0945,0.33073 -0.28348,0.56696 -0.377979,0.23624 -0.897694,0.37798 -0.897694,0.37798 0,0 -0.33073,-0.23624 -0.566966,-1.70089 -0.236235,-1.46466 -0.755951,-1.18118 -0.755951,-1.18118 l -0.850448,0.23623 c 0,0 -0.236233,-0.61421 -0.9449407,-0.56696 -0.708705,0.0472 -1.275667,0.42523 -1.275667,0.42523 l -0.377978,1.18117 -0.519716,0.7087 c 0,0 0.236236,-0.61421 -0.236236,-1.88987 -0.472469,-1.27567 -0.897694,-2.55134 -0.897694,-2.55134 l -1.133928,-1.46466 c 0,0 -1.464656,-1.37017 -1.606399,-3.11831 -0.14174,-1.74814 -0.14174,-2.59858 -0.14174,-2.59858 l -0.330729,-1.27567 c 0,0 0.425223,-6.85082 1.937128,-10.72508 1.511904,-3.87425 5.8586287,-9.35491 5.8586287,-9.35491 0,0 4.960938,-5.57515 9.118677,-7.41778 4.157737,-1.842633 4.280601,-1.601912 4.280601,-1.601912 0,0 0.935442,-7.8844506 7.216278,-10.9580516 6.280832,-3.073599 14.111011,-3.0788 14.111011,-3.0788 0,0 18.47359,-0.472472 25.18267,7.3705349 6.70907,7.8430057 12.6622,12.6621987 12.6622,12.6621987 0,0 4.91369,5.76414 7.08705,6.04762 2.173359,0.28348 0.0945,0.18899 0.0945,0.18899 l 0.58062,0.8136 -0.60136,0.11693 0.66817,0.21716 -0.36749,0.16704 -0.434309,0.0167 0.300669,0.33408 0.73499,0.10023 -0.0167,0.23386 -0.55124,-0.0167 -0.0334,0.26727 0.51783,0.21716 0.3842,0.0835 -0.3842,0.15034 -0.61806,0.15034 0.10378,0.40851 0.37797,0.23624 0.63784,0.23623 -0.0472,0.25986 -0.7087,0.14174 0.51971,0.44885 1.41741,0.68508 0.92132,0.96856 1.96075,0.82683 -0.66146,0.47247 1.08669,0.75595 -1.34655,-0.14174 0.66146,1.13393 h -0.33073 l 0.42523,0.85044 -0.33073,-0.16536 0.61421,0.87407 -0.11812,0.49609 -1.5119,-2.14974 -0.0709,0.37798 0.49609,0.49609 -0.0709,0.47247 -2.29148,-1.84263 v 0.18899 c 0,0 1.25204,1.01581 1.86626,2.97656 0.61421,1.96076 -0.0945,3.37817 -0.0945,3.37817 l -0.23623,2.57496 c 0,0 -0.23624,0.89769 0.28348,1.88988 0.51972,0.99219 -0.33073,2.69308 -0.33073,2.69308 l -0.51972,0.23624 c 0,0 -0.61421,4.20498 3.2128,3.54352 3.827009,-0.66146 -0.72642,0.38979 -0.72642,0.38979 l 0.44294,0.3012 0.7028,-0.11812 0.16536,0.0177 -0.065,0.69098 -0.87998,0.26577 c 0,0 -1.1044,-0.0532 -1.17527,-0.0532 -0.0709,0 -1.60049,-0.53744 -1.60049,-0.53744 l -0.90951,-0.56106 -0.23032,0.006 0.0472,1.08668 0.0236,0.8977 c 0,0 0.0945,0.59059 0.56696,0.51972 0.47247,-0.0709 0.56697,-0.0236 0.56697,-0.0236 l 0.35435,0.0472 -0.96856,0.25986 0.3071,0.51971 -0.63783,-0.0945 0.47247,0.68508 -0.63784,-0.25986 0.70871,1.2048 0.54334,1.18118 0.77958,0.3071 -1.46466,-0.3071 -1.11031,-1.39379 -0.59059,-0.75595 0.31888,2.18467 -1.236129,-2.73951 -1.00226,-0.50113 0.5966,0.42994 0.0591,0.8032 0.38978,0.73233 -0.73232,-0.48428 -0.23624,-0.88588 -0.56696,-0.24805 -0.41341,0.15355 -0.55516,-0.0118 -0.27167,0.28349 0.41068,0.41352 0.51784,0.16704 -0.41761,0.28397 -0.71829,-0.18375 0.4009,0.55125 0.71829,0.31738 -0.46772,0.15034 -0.70158,0.20045 -0.56795,-0.43431 -0.7684,0.23386 -0.0167,0.46772 0.20045,0.31738 0.33409,0.0835 -0.38421,0.0501 -0.50112,-0.18375 v -0.30068 l -0.23387,0.21716 -0.46772,0.11693 -0.36749,-0.13364 -0.55125,-0.35079 0.16705,0.30068 0.30067,0.16704 0.40091,0.28398 0.53454,0.30068 0.58465,0.23386 -0.66817,0.0668 -0.58465,-0.21715 -0.93545,-0.40091 -0.51783,-0.51783 -0.26727,-0.3675 -0.20045,0.0835 -0.0835,0.35079 0.31739,0.30067 0.33408,0.16705 c 0,0 0.0501,0.75169 -0.0501,0.7684 -0.10023,0.0167 -0.20045,-0.43431 -0.20045,-0.43431 l -0.28398,-0.33409 -0.21715,-0.15034 -0.11693,1.11919 -0.0167,-1.26953 -0.16704,-0.23386 -0.11693,-0.98556 -0.23386,-0.18374 -0.41761,-0.0167 -0.3675,0.18375 -0.35079,0.36749 -0.3675,0.43432 -0.38419,0.53454 -0.20046,0.43431 -0.26727,-0.35079 -0.53445,-0.0908 -1.32292,-0.28348 c 0,0 -3.22075,-2.18151 -5.59276,-9.99914 -2.37206,-7.81765 -1.04548,-3.44266 -1.04548,-3.44266 l -1.63002,-5.45703 c 0,0 -1.7679,-7.53741 -3.13765,-10.34374 -1.36976,-2.80633 -2.77292,0.50113 -2.77292,0.50113 l -3.67496,-1.13589 -3.62001,-1.87269 -2.69308,-0.0472 c 0,0 -0.42523,0.33073 -0.66146,0.33073 -0.23624,0 -1.22843,0.14174 -1.22843,0.14174 l -0.7087,-0.18899 -0.89769,-0.0472 -1.32292,-0.0473 h -1.32292 l -1.22842,-0.0945 -1.606403,0.28349 -2.031621,0.47247 -2.173365,0.0945 -2.551337,-0.7087 -1.27567,-0.85045 -5.142182,-0.40582 -1.670434,-0.48442 c 0,0 -0.484425,-0.11693 -0.53454,0.21715 -0.05011,0.33409 -1.018964,0.83522 -1.018964,0.83522 l -0.851921,0.96885 -2.939965,1.63703 c 0,0 -0.902036,0.53454 -0.567949,1.5368 0.334086,1.00226 -1.336347,12.02713 -1.336347,12.02713 l -2.238383,1.06908 c 0,0 -2.305198,0.83521 -2.505652,1.63702 -0.200451,0.80181 -0.423204,1.56166 -0.423204,1.56166 z"
       style="fill:none;fill-opacity:1;stroke:#000000;stroke-width:0.265;stroke-linecap:butt;stroke-linejoin:round;stroke-opacity:1;stroke-miterlimit:4;stroke-dasharray:none" />
  </g>
</svg>
